<svg width="81" height="39" viewBox="0 0 81 39" fill="none" xmlns="http://www.w3.org/2000/svg">
<path d="M37.0665 10.7051H36.0144V20.607C37.1529 18.7079 37.7493 16.5333 37.7389 14.3191C37.7403 13.0832 37.5123 11.8578 37.0665 10.7051Z" fill="#0006B1"/>
<path d="M20.1077 24.9465C20.8875 26.2018 21.3866 27.611 21.5708 29.0773V31.0352H0.334961V2.229H7.0836V24.9527L20.1077 24.9465Z" fill="#0006B1"/>
<path d="M56.8361 19.5545V31.0346H50.377V19.9218C50.377 18.604 50.047 17.5747 49.3871 16.8339C49.0444 16.4602 48.6234 16.1668 48.1542 15.9747C47.6849 15.7826 47.1791 15.6965 46.6727 15.7226C46.1028 15.6998 45.5349 15.8022 45.0089 16.0228C44.4829 16.2433 44.0116 16.5765 43.6284 16.9988C42.8327 17.9224 42.4197 19.1149 42.4735 20.3327V31.0346H36.0112V23.7475L36.2603 23.3615C37.7295 21.0767 39.398 18.4868 39.398 14.3342C39.3989 13.1039 39.2056 11.881 38.8252 10.7109H41.6112L42.0221 13.0985C42.8102 12.199 43.7855 11.4829 44.8797 11.0004C46.0421 10.4957 47.2982 10.2431 48.5653 10.2595C51.0909 10.2595 53.0997 11.0824 54.5918 12.728C56.0839 14.3737 56.832 16.6492 56.8361 19.5545Z" fill="#0006B1"/>
<path d="M56.0144 2.229V8.11539H64.7708V31.0352H71.5195V8.11539H80.335V2.229H56.0144Z" fill="#0006B1"/>
<path d="M31.0525 33.2232H24.4252C24.2461 33.2232 24.0743 33.1521 23.9476 33.0254C23.8209 32.8987 23.7498 32.7269 23.7498 32.5477C23.7494 32.4588 23.7665 32.3706 23.8003 32.2883C23.834 32.206 23.8837 32.1311 23.9465 32.0681C24.0093 32.005 24.0839 31.955 24.166 31.9209C24.2482 31.8867 24.3363 31.8691 24.4252 31.8691H31.0525C31.1416 31.8691 31.2298 31.8867 31.3122 31.9208C31.3945 31.9549 31.4693 32.0049 31.5323 32.0679C31.5953 32.1309 31.6453 32.2057 31.6794 32.2881C31.7135 32.3704 31.7311 32.4586 31.7311 32.5477C31.7303 32.7272 31.6584 32.899 31.5312 33.0256C31.4041 33.1522 31.2319 33.2232 31.0525 33.2232Z" fill="#0006B1"/>
<path d="M31.0525 35.3497H24.4252C24.3365 35.3497 24.2487 35.3322 24.1667 35.2983C24.0848 35.2643 24.0103 35.2146 23.9476 35.1518C23.8849 35.0891 23.8351 35.0147 23.8012 34.9327C23.7672 34.8507 23.7498 34.7629 23.7498 34.6742C23.7498 34.4948 23.8208 34.3226 23.9474 34.1955C24.074 34.0683 24.2458 33.9964 24.4252 33.9956H31.0525C31.2322 33.9964 31.4043 34.0682 31.5314 34.1953C31.6585 34.3224 31.7303 34.4945 31.7311 34.6742C31.7303 34.8536 31.6584 35.0254 31.5312 35.152C31.4041 35.2786 31.2319 35.3497 31.0525 35.3497Z" fill="#0006B1"/>
<path d="M26.1309 36.1494C26.0924 36.1497 26.0544 36.1584 26.0196 36.1749C25.9848 36.1915 25.954 36.2154 25.9294 36.245C25.9048 36.2747 25.887 36.3093 25.8771 36.3466C25.8673 36.3838 25.8658 36.4228 25.8726 36.4607C25.9383 36.9037 26.161 37.3083 26.5001 37.6008C26.8393 37.8933 27.2722 38.0542 27.72 38.0542C28.1679 38.0542 28.6008 37.8933 28.9399 37.6008C29.279 37.3083 29.5018 36.9037 29.5675 36.4607C29.5749 36.4227 29.5737 36.3836 29.5641 36.3461C29.5545 36.3086 29.5367 36.2737 29.512 36.2439C29.4873 36.2141 29.4563 36.1902 29.4212 36.1739C29.3861 36.1575 29.3478 36.1492 29.3091 36.1494H26.1309Z" fill="#0006B1"/>
<path d="M29.5521 4.45746C28.4029 4.24483 27.2258 4.23115 26.072 4.41699C23.7167 4.79055 21.5726 5.99387 20.0267 7.80971C18.4809 9.62555 17.6352 11.9342 17.6424 14.3189C17.6424 17.989 19.1054 20.2551 20.5186 22.4528C21.8167 24.4637 23.04 26.3625 23.2642 29.3633C23.2993 29.8087 23.5006 30.2246 23.8282 30.5285C24.1557 30.8324 24.5855 31.002 25.0323 31.0038H30.3521C30.7989 31.002 31.2287 30.8324 31.5562 30.5285C31.8837 30.2246 32.0851 29.8087 32.1202 29.3633C32.3443 26.3625 33.5677 24.4637 34.8626 22.4528C36.279 20.2551 37.7389 17.989 37.7389 14.3189C37.7371 11.9788 36.9181 9.7128 35.4233 7.91228C33.9286 6.11175 31.8519 4.88979 29.5521 4.45746ZM32.472 22.101C32.4391 22.1989 32.3837 22.2877 32.3102 22.3602C32.2366 22.4327 32.147 22.4868 32.0486 22.5182C26.1716 24.4139 22.5731 20.4077 22.4362 20.2333C22.3319 20.102 22.2821 19.9356 22.297 19.7686C22.312 19.6016 22.3905 19.4467 22.5165 19.336C22.6424 19.2253 22.806 19.1672 22.9736 19.1737C23.1411 19.1802 23.2998 19.2509 23.4167 19.3711C23.5474 19.5174 26.6323 22.8979 31.6657 21.2792C31.7473 21.2526 31.8333 21.2423 31.9188 21.2491C32.0043 21.2558 32.0877 21.2793 32.164 21.3184C32.2404 21.3575 32.3083 21.4112 32.3638 21.4766C32.4194 21.542 32.4614 21.6178 32.4875 21.6995C32.5232 21.8318 32.5178 21.9719 32.472 22.101Z" fill="#0006B1"/>
<path d="M27.513 2.77043C27.4599 2.77167 27.4071 2.76229 27.3577 2.74282C27.3082 2.72336 27.2632 2.6942 27.2252 2.65708C27.1872 2.61996 27.157 2.57561 27.1364 2.52665C27.1158 2.47769 27.1052 2.4251 27.1052 2.37198V0.398444C27.1052 0.29277 27.1472 0.191424 27.2219 0.116701C27.2966 0.0419788 27.398 0 27.5037 0C27.6093 0 27.7107 0.0419788 27.7854 0.116701C27.8601 0.191424 27.9021 0.29277 27.9021 0.398444V2.37198C27.9021 2.47606 27.8614 2.57602 27.7887 2.65048C27.716 2.72494 27.6171 2.76799 27.513 2.77043Z" fill="#0006B1"/>
<path d="M36.7148 6.58074C36.6403 6.57512 36.5689 6.54881 36.5085 6.50479C36.4481 6.46077 36.4012 6.40078 36.3731 6.33156C36.3449 6.26234 36.3367 6.18664 36.3492 6.11298C36.3617 6.03932 36.3946 5.97061 36.444 5.9146L37.8386 4.52004C37.9137 4.44533 38.0154 4.40352 38.1214 4.40381C38.2273 4.4041 38.3288 4.44647 38.4035 4.5216C38.4783 4.59673 38.5201 4.69846 38.5198 4.80441C38.5195 4.91037 38.4771 5.01187 38.402 5.08658L37.0074 6.47802C36.9681 6.51398 36.9219 6.54162 36.8716 6.55927C36.8213 6.57692 36.768 6.58423 36.7148 6.58074Z" fill="#0006B1"/>
<path d="M14.5015 15.782H12.531C12.431 15.7732 12.338 15.7272 12.2702 15.6532C12.2024 15.5792 12.1648 15.4824 12.1648 15.382C12.1648 15.2816 12.2024 15.1849 12.2702 15.1109C12.338 15.0368 12.431 14.9909 12.531 14.982H14.5015C14.557 14.9771 14.6129 14.9838 14.6656 15.0017C14.7184 15.0196 14.7669 15.0482 14.8079 15.0859C14.849 15.1235 14.8818 15.1692 14.9043 15.2202C14.9267 15.2712 14.9383 15.3263 14.9383 15.382C14.9383 15.4377 14.9267 15.4928 14.9043 15.5438C14.8818 15.5948 14.849 15.6406 14.8079 15.6782C14.7669 15.7158 14.7184 15.7445 14.6656 15.7623C14.6129 15.7802 14.557 15.7869 14.5015 15.782Z" fill="#0006B1"/>
<path d="M18.3147 6.58068C18.2083 6.58032 18.1064 6.53778 18.0314 6.46239L16.6368 5.07096C16.5617 4.99624 16.5193 4.89474 16.519 4.78879C16.5188 4.68283 16.5606 4.5811 16.6353 4.50597C16.71 4.43085 16.8115 4.38848 16.9174 4.38819C17.0234 4.38789 17.1251 4.4297 17.2003 4.50442L18.5948 5.91453C18.6495 5.97065 18.6865 6.04152 18.7014 6.11844C18.7163 6.19535 18.7084 6.27494 18.6786 6.3474C18.6488 6.41986 18.5985 6.48202 18.5338 6.52624C18.4692 6.57046 18.393 6.59479 18.3147 6.59625V6.58068Z" fill="#0006B1"/>
<path d="M32.5373 3.7786C32.4882 3.77324 32.4407 3.75844 32.3972 3.73502C32.2997 3.69378 32.2224 3.61569 32.1822 3.51775C32.142 3.41981 32.1421 3.30994 32.1824 3.21207L32.9451 1.39417C32.9655 1.34593 32.9953 1.30219 33.0326 1.26545C33.0699 1.22871 33.1142 1.19968 33.1627 1.18002C33.2113 1.16037 33.2632 1.15047 33.3156 1.15089C33.368 1.15132 33.4198 1.16205 33.468 1.18249C33.5163 1.20293 33.56 1.23267 33.5968 1.27002C33.6335 1.30736 33.6625 1.35157 33.6822 1.40013C33.7018 1.44869 33.7117 1.50065 33.7113 1.55304C33.7109 1.60542 33.7002 1.65721 33.6797 1.70545L32.9202 3.52335C32.8906 3.60027 32.8379 3.66612 32.7693 3.71184C32.7007 3.75755 32.6197 3.78088 32.5373 3.7786Z" fill="#0006B1"/>
<path d="M15.5132 10.7549C15.4597 10.7554 15.4067 10.7448 15.3575 10.7238L13.5396 9.96113C13.4912 9.94069 13.4473 9.91091 13.4103 9.87349C13.3734 9.83607 13.3442 9.79174 13.3244 9.74303C13.3046 9.69433 13.2946 9.6422 13.2949 9.58962C13.2953 9.53705 13.306 9.48506 13.3264 9.43662C13.3469 9.38818 13.3766 9.34423 13.4141 9.3073C13.4515 9.27037 13.4958 9.24117 13.5445 9.22137C13.5932 9.20157 13.6453 9.19156 13.6979 9.1919C13.7505 9.19225 13.8025 9.20295 13.8509 9.22339L15.6688 9.98603C15.7535 10.0216 15.8233 10.0854 15.8663 10.1665C15.9094 10.2476 15.9232 10.3411 15.9052 10.4312C15.8873 10.5213 15.8388 10.6024 15.7679 10.6608C15.697 10.7192 15.6081 10.7514 15.5163 10.7518L15.5132 10.7549Z" fill="#0006B1"/>
<path d="M22.5792 3.7356C22.5001 3.73561 22.4228 3.71189 22.3573 3.66749C22.2919 3.62309 22.2412 3.56007 22.2119 3.48657L21.4648 1.66245C21.4236 1.56462 21.4228 1.4544 21.4628 1.35603C21.5028 1.25767 21.5802 1.17922 21.6781 1.13794C21.7759 1.09666 21.8861 1.09593 21.9845 1.13592C22.0829 1.17591 22.1613 1.25334 22.2026 1.35117L22.9497 3.17529C22.9699 3.22368 22.9804 3.27562 22.9804 3.32808C22.9804 3.38055 22.9699 3.43248 22.9496 3.48087C22.9294 3.52925 22.8996 3.57312 22.8622 3.6099C22.8248 3.64669 22.7805 3.67566 22.7318 3.69514C22.6844 3.71942 22.6324 3.73323 22.5792 3.7356Z" fill="#0006B1"/>
</svg>
