<svg width="47" height="57" viewBox="0 0 47 57" fill="none" xmlns="http://www.w3.org/2000/svg">
<g clip-path="url(#clip0_1023_25756)">
<path d="M38.6058 15.9958H37.0337V30.7917C38.7349 27.954 39.6261 24.7045 39.6105 21.396C39.6126 19.5493 39.2719 17.7183 38.6058 15.9958Z" fill="#0006B1"/>
<path d="M29.6195 49.6434H19.7169C19.4492 49.6434 19.1924 49.5371 19.0032 49.3478C18.8139 49.1585 18.7075 48.9018 18.7075 48.6341C18.7069 48.5012 18.7326 48.3694 18.783 48.2464C18.8335 48.1234 18.9077 48.0116 19.0015 47.9174C19.0953 47.8232 19.2068 47.7484 19.3295 47.6974C19.4523 47.6464 19.5839 47.6201 19.7169 47.6201H29.6195C29.7527 47.6201 29.8845 47.6463 30.0076 47.6973C30.1306 47.7483 30.2424 47.823 30.3365 47.9171C30.4307 48.0113 30.5054 48.123 30.5563 48.2461C30.6073 48.3691 30.6335 48.5009 30.6335 48.6341C30.6323 48.9022 30.5249 49.1589 30.3349 49.3481C30.1449 49.5373 29.8876 49.6434 29.6195 49.6434Z" fill="#0006B1"/>
<path d="M29.6195 52.8204H19.7169C19.5843 52.8204 19.4531 52.7943 19.3306 52.7436C19.2081 52.6929 19.0969 52.6185 19.0031 52.5248C18.9094 52.4311 18.8351 52.3198 18.7843 52.1974C18.7336 52.0749 18.7075 51.9437 18.7075 51.8111C18.7075 51.543 18.8137 51.2858 19.0029 51.0958C19.192 50.9057 19.4487 50.7983 19.7169 50.7971H29.6195C29.8881 50.7983 30.1453 50.9056 30.3352 51.0955C30.5251 51.2854 30.6323 51.5426 30.6335 51.8111C30.6323 52.0792 30.5249 52.3359 30.3349 52.5251C30.1448 52.7143 29.8876 52.8204 29.6195 52.8204Z" fill="#0006B1"/>
<path d="M22.2658 54.0156C22.2082 54.0161 22.1515 54.0291 22.0994 54.0538C22.0474 54.0784 22.0014 54.1142 21.9647 54.1585C21.9279 54.2028 21.9013 54.2546 21.8866 54.3102C21.8719 54.3659 21.8696 54.4241 21.8797 54.4808C21.978 55.1427 22.3108 55.7473 22.8175 56.1844C23.3242 56.6214 23.9711 56.8619 24.6403 56.8619C25.3095 56.8619 25.9564 56.6214 26.4631 56.1844C26.9698 55.7473 27.3026 55.1427 27.4009 54.4808C27.4119 54.424 27.4102 54.3655 27.3958 54.3095C27.3815 54.2534 27.3549 54.2013 27.3179 54.1568C27.281 54.1123 27.2347 54.0766 27.1822 54.0521C27.1298 54.0277 27.0726 54.0153 27.0148 54.0156H22.2658Z" fill="#0006B1"/>
<path d="M27.3776 6.66055C25.6604 6.34284 23.9015 6.32238 22.1774 6.60008C18.658 7.15826 15.4542 8.95631 13.1444 11.6696C10.8346 14.3829 9.57091 17.8326 9.58161 21.3959C9.58161 26.8798 11.7677 30.266 13.8794 33.5498C15.819 36.5546 17.647 39.3919 17.9819 43.8758C18.0344 44.5413 18.3352 45.1628 18.8246 45.6168C19.314 46.0709 19.9562 46.3244 20.6238 46.327H28.5729C29.2405 46.3244 29.8828 46.0709 30.3722 45.6168C30.8616 45.1628 31.1624 44.5413 31.2149 43.8758C31.5498 39.3919 33.3778 36.5546 35.3127 33.5498C37.4291 30.266 39.6105 26.8798 39.6105 21.3959C39.6079 17.8992 38.3841 14.5133 36.1506 11.8229C33.917 9.13246 30.8141 7.30656 27.3776 6.66055ZM31.7405 33.0242C31.6915 33.1705 31.6086 33.3032 31.4987 33.4115C31.3888 33.5198 31.2549 33.6007 31.1079 33.6475C22.3262 36.4802 16.9493 30.4939 16.7446 30.2334C16.5889 30.0372 16.5144 29.7886 16.5368 29.539C16.5591 29.2895 16.6765 29.0581 16.8646 28.8926C17.0528 28.7271 17.2973 28.6403 17.5477 28.6501C17.7981 28.6598 18.0351 28.7654 18.2098 28.945C18.4052 29.1636 23.0146 34.215 30.5358 31.7963C30.6576 31.7565 30.7862 31.7411 30.914 31.7512C31.0417 31.7612 31.1663 31.7964 31.2804 31.8548C31.3945 31.9131 31.496 31.9935 31.579 32.0912C31.6619 32.1889 31.7247 32.3021 31.7638 32.4242C31.8171 32.6219 31.8089 32.8312 31.7405 33.0242Z" fill="#0006B1"/>
<path d="M24.331 4.13967C24.2517 4.14153 24.1727 4.12751 24.0989 4.09842C24.025 4.06934 23.9577 4.02578 23.901 3.97031C23.8442 3.91483 23.7991 3.84857 23.7683 3.77541C23.7375 3.70225 23.7217 3.62368 23.7217 3.54431V0.595369C23.7217 0.437467 23.7844 0.286033 23.8961 0.17438C24.0077 0.0627262 24.1591 0 24.317 0C24.4749 0 24.6264 0.0627262 24.738 0.17438C24.8497 0.286033 24.9124 0.437467 24.9124 0.595369V3.54431C24.9125 3.69982 24.8517 3.84918 24.743 3.96044C24.6343 4.0717 24.4865 4.13603 24.331 4.13967Z" fill="#0006B1"/>
<path d="M38.0802 9.83293C37.9689 9.82453 37.8621 9.78522 37.7719 9.71944C37.6817 9.65366 37.6116 9.56402 37.5696 9.46059C37.5275 9.35716 37.5152 9.24405 37.5339 9.13398C37.5526 9.02392 37.6017 8.92126 37.6756 8.83755L39.7594 6.75376C39.8716 6.64212 40.0236 6.57964 40.1819 6.58008C40.3403 6.58052 40.4919 6.64383 40.6036 6.75609C40.7152 6.86834 40.7777 7.02035 40.7772 7.17867C40.7768 7.337 40.7135 7.48866 40.6012 7.6003L38.5175 9.67944C38.4587 9.73317 38.3897 9.77447 38.3145 9.80085C38.2394 9.82723 38.1597 9.83814 38.0802 9.83293Z" fill="#0006B1"/>
<path d="M4.8885 23.5822H1.94422C1.7948 23.569 1.65574 23.5004 1.55445 23.3897C1.45316 23.2791 1.39697 23.1345 1.39697 22.9845C1.39697 22.8345 1.45316 22.69 1.55445 22.5794C1.65574 22.4687 1.7948 22.4 1.94422 22.3868H4.8885C4.97142 22.3795 5.05496 22.3895 5.1338 22.4162C5.21265 22.443 5.28507 22.4858 5.34647 22.542C5.40786 22.5982 5.45689 22.6666 5.49043 22.7428C5.52398 22.819 5.5413 22.9013 5.5413 22.9845C5.5413 23.0678 5.52398 23.1501 5.49043 23.2263C5.45689 23.3025 5.40786 23.3709 5.34647 23.4271C5.28507 23.4833 5.21265 23.5261 5.1338 23.5528C5.05496 23.5795 4.97142 23.5896 4.8885 23.5822Z" fill="#0006B1"/>
<path d="M10.5864 9.833C10.4275 9.83246 10.2752 9.7689 10.1631 9.65625L8.07933 7.57711C7.96707 7.46547 7.90376 7.3138 7.90332 7.15548C7.90289 6.99716 7.96536 6.84515 8.077 6.73289C8.18865 6.62063 8.34031 6.55732 8.49863 6.55689C8.65695 6.55645 8.80896 6.61893 8.92122 6.73057L11.005 8.83761C11.0867 8.92146 11.1421 9.02736 11.1643 9.14229C11.1866 9.25722 11.1747 9.37614 11.1302 9.48441C11.0857 9.59268 11.0105 9.68558 10.9139 9.75165C10.8173 9.81772 10.7034 9.85408 10.5864 9.85625V9.833Z" fill="#0006B1"/>
<path d="M31.8383 5.64665C31.765 5.63864 31.6939 5.61653 31.629 5.58154C31.4833 5.51991 31.3678 5.40322 31.3077 5.25688C31.2476 5.11053 31.2477 4.94637 31.308 4.80011L32.4476 2.08374C32.4781 2.01167 32.5226 1.94631 32.5784 1.89141C32.6342 1.83651 32.7002 1.79313 32.7728 1.76376C32.8454 1.73439 32.923 1.7196 33.0013 1.72023C33.0796 1.72087 33.157 1.73691 33.229 1.76745C33.3011 1.798 33.3665 1.84243 33.4214 1.89823C33.4763 1.95403 33.5196 2.0201 33.549 2.09266C33.5784 2.16522 33.5932 2.24286 33.5925 2.32113C33.5919 2.39941 33.5759 2.4768 33.5453 2.54888L32.4104 5.26525C32.3662 5.38018 32.2874 5.47858 32.185 5.54689C32.0825 5.6152 31.9614 5.65005 31.8383 5.64665Z" fill="#0006B1"/>
<path d="M6.40006 16.0704C6.32015 16.0711 6.24095 16.0553 6.16749 16.0239L3.45112 14.8843C3.37874 14.8537 3.31308 14.8092 3.2579 14.7533C3.20271 14.6974 3.15908 14.6312 3.12949 14.5584C3.09991 14.4856 3.08495 14.4077 3.08546 14.3292C3.08598 14.2506 3.10196 14.1729 3.13251 14.1005C3.16305 14.0282 3.20754 13.9625 3.26346 13.9073C3.31938 13.8521 3.38561 13.8085 3.45839 13.7789C3.53117 13.7493 3.60906 13.7344 3.68762 13.7349C3.76618 13.7354 3.84387 13.7514 3.91625 13.7819L6.63262 14.9215C6.75914 14.9747 6.86341 15.0699 6.92777 15.1911C6.99214 15.3123 7.01265 15.4521 6.98584 15.5867C6.95903 15.7213 6.88654 15.8425 6.78065 15.9298C6.67475 16.017 6.54195 16.0651 6.40471 16.0657L6.40006 16.0704Z" fill="#0006B1"/>
<path d="M16.9588 5.58166C16.8406 5.58167 16.7251 5.54622 16.6272 5.47988C16.5294 5.41354 16.4537 5.31938 16.41 5.20955L15.2936 2.48388C15.232 2.3377 15.2309 2.173 15.2906 2.02602C15.3504 1.87904 15.4661 1.76181 15.6123 1.70013C15.7584 1.63845 15.9231 1.63737 16.0701 1.69712C16.2171 1.75687 16.3343 1.87257 16.396 2.01875L17.5123 4.74442C17.5426 4.81672 17.5582 4.89433 17.5582 4.97273C17.5582 5.05112 17.5426 5.12873 17.5123 5.20102C17.482 5.27332 17.4376 5.33887 17.3817 5.39383C17.3258 5.4488 17.2595 5.4921 17.1867 5.52119C17.116 5.55748 17.0382 5.57811 16.9588 5.58166Z" fill="#0006B1"/>
</g>
<defs>
<clipPath id="clip0_1023_25756">
<rect width="46.5132" height="56.7461" fill="white"/>
</clipPath>
</defs>
</svg>
